<svg id="Layer_1" data-name="Layer 1" xmlns="http://www.w3.org/2000/svg" viewBox="0 0 489 378"><defs><style>.cls-1{fill:none;stroke:#000;stroke-miterlimit:10;stroke-width:12.24px;}</style></defs><title>icon</title><rect class="cls-1" x="93.07" y="159.08" width="298" height="137" rx="61.35"/><path class="cls-1" d="M330.07,154.08s2-16-15-17-101,0-101,0-17,2-15-6c3-7,4-10,4-10s-1-5,10-5h93s17,0,17-15-13-13-20-13h-100s-13-3-20,11l-14,28s-3.68,9.86-8,11c-8.4,2.21-10,14-12,18"/><path class="cls-1" d="M96,201.77s157.23,6.69,292.16,0"/><path class="cls-1" d="M95.5,251.78s157.23,6.69,292.15,0"/></svg>