<svg xmlns="http://www.w3.org/2000/svg" viewBox="0 0 610 610"><defs><style>.cls-1{opacity:0.5;}.cls-2{fill:none;}.cls-2,.cls-3{stroke:#fff;stroke-miterlimit:10;stroke-width:11.52px;}.cls-3{fill:#fff;}</style></defs><title>logo_white2</title><g id="Layer_3" data-name="Layer 3"><g class="cls-1"><path class="cls-2" d="M70.46,454.16a276.06,276.06,0,0,0,451.47,18.29"/><path class="cls-2" d="M564.86,390.19a26.24,26.24,0,0,0,1.47-3.62,276,276,0,0,0,12.3-81.72c0-152.43-123.57-276-276-276s-276,123.57-276,276a274.91,274.91,0,0,0,26.89,119"/><path class="cls-2" d="M439.8,454.16a202.75,202.75,0,0,1-274.35,0"/><path class="cls-2" d="M138.43,423.83a201.83,201.83,0,0,1-38.56-119c0-112,90.78-202.76,202.76-202.76s202.76,90.78,202.76,202.76a201.84,201.84,0,0,1-38.57,119"/></g><path class="cls-2" d="M521.93,461.74h-41c-5.56,0-10.26-3.24-11.6-7.58H52.93c-8.6,0-14-4.55-14-10.11V433.94c0-5.56,5.4-10.11,12-10.11h418.4c1.34-4.35,6-7.59,11.6-7.59h41"/><path class="cls-2" d="M533.93,318.74h12c6.6,0,12,3.94,12,8.75l6.8,45.83c2.13,23.76,2.13,107.59,0,131.34l-6.8,45.84c0,4.81-5.4,8.74-12,8.74h-12c-6.6,0-12-3.93-12-8.74v-223C521.93,322.68,527.33,318.74,533.93,318.74Z"/><rect class="cls-2" x="153.63" y="245.42" width="298" height="137" rx="61.35"/><path class="cls-2" d="M390.63,241.42s2-19-15-20c-17.53-1-16.89-1-101,0,0,0-17,2-15-6,3-7,4-10,4-10s-1-5,10-5h93s17,0,17-15-13-13-20-13h-100s-13-3-20,11l-14,28s-3.68,9.86-8,11c-8.4,2.2-10,17-12,21"/><path class="cls-3" d="M156.55,288.1s157.23,6.69,292.15,0"/><path class="cls-3" d="M156.06,338.11s157.23,6.69,292.15,0"/></g></svg>